<?xml version="1.0" encoding="UTF-8"?>
<svg xmlns="http://www.w3.org/2000/svg" id="card-c2" viewBox="0 0 640 539" width="1280" role="img" aria-label="期限越长，权重越重" height="1078"><style>
  text{font-family:-apple-system, "Helvetica Neue", "PingFang SC", "Hiragino Sans GB", "Microsoft YaHei", Arial, sans-serif;}
  .pop,.fade{animation:none}
  .draw{animation:none;stroke-dasharray:none;stroke-dashoffset:0}
</style><rect x="0" y="0" width="640" height="539" rx="24" fill="#F5F3F0"></rect><text x="36" y="46" font-size="19" font-weight="700" fill="#141414" letter-spacing="-.015em">期限越长，权重越重</text><text x="36" y="67" font-size="11.5" font-weight="400" fill="#57554F">基础年化 200% × 期限权重 · 每格 = 10 个百分点</text><g transform="translate(-4.00,-26.13) scale(1.6200)"><line x1="45.9668" y1="272" x2="82.0332" y2="272" stroke="#059669" stroke-width="1.8" opacity="0.936" class="fade"></line><line x1="47.4032" y1="265.9" x2="80.5968" y2="265.9" stroke="#059669" stroke-width="1.8" opacity="0.958" class="fade"></line><line x1="47.99" y1="259.8" x2="80.00999999999999" y2="259.8" stroke="#059669" stroke-width="1.8" opacity="0.966" class="fade"></line><line x1="45.8264" y1="253.7" x2="82.1736" y2="253.7" stroke="#059669" stroke-width="1.8" opacity="0.884" class="fade"></line><line x1="46.2692" y1="247.6" x2="81.7308" y2="247.6" stroke="#059669" stroke-width="1.8" opacity="0.917" class="fade"></line><circle cx="86" cy="247.6" r="1.1" fill="#C9C6C0" class="fade"></circle><line x1="48.0512" y1="241.5" x2="79.9488" y2="241.5" stroke="#059669" stroke-width="1.8" opacity="0.875" class="fade"></line><line x1="45.3836" y1="235.4" x2="82.6164" y2="235.4" stroke="#059669" stroke-width="1.8" opacity="0.948" class="fade"></line><line x1="48.2312" y1="229.3" x2="79.7688" y2="229.3" stroke="#059669" stroke-width="1.8" opacity="0.905" class="fade"></line><line x1="47.954" y1="223.2" x2="80.04599999999999" y2="223.2" stroke="#059669" stroke-width="1.8" opacity="0.911" class="fade"></line><line x1="45.7328" y1="217.1" x2="82.2672" y2="217.1" stroke="#059669" stroke-width="1.8" opacity="0.931" class="fade"></line><circle cx="86" cy="217.1" r="1.1" fill="#C9C6C0" class="fade"></circle><line x1="47.9324" y1="211" x2="80.0676" y2="211" stroke="#059669" stroke-width="1.8" opacity="0.912" class="fade"></line><line x1="46.5176" y1="204.9" x2="81.4824" y2="204.9" stroke="#059669" stroke-width="1.8" opacity="0.853" class="fade"></line><line x1="46.2692" y1="198.8" x2="81.7308" y2="198.8" stroke="#059669" stroke-width="1.8" opacity="0.985" class="fade"></line><line x1="48.540800000000004" y1="192.7" x2="79.4592" y2="192.7" stroke="#059669" stroke-width="1.8" opacity="0.887" class="fade"></line><line x1="46.3916" y1="186.60000000000002" x2="81.6084" y2="186.60000000000002" stroke="#059669" stroke-width="1.8" opacity="0.897" class="fade"></line><circle cx="86" cy="186.60000000000002" r="1.1" fill="#C9C6C0" class="fade"></circle><line x1="45.956" y1="180.5" x2="82.044" y2="180.5" stroke="#059669" stroke-width="1.8" opacity="0.920" class="fade"></line><line x1="45.506" y1="174.4" x2="82.494" y2="174.4" stroke="#059669" stroke-width="1.8" opacity="0.920" class="fade"></line><line x1="47.8928" y1="168.3" x2="80.1072" y2="168.3" stroke="#059669" stroke-width="1.8" opacity="0.954" class="fade"></line><line x1="45.686" y1="162.2" x2="82.314" y2="162.2" stroke="#059669" stroke-width="1.8" opacity="0.956" class="fade"></line><line x1="45.394400000000005" y1="156.10000000000002" x2="82.6056" y2="156.10000000000002" stroke="#059669" stroke-width="1.8" opacity="0.946" class="fade"></line><circle cx="86" cy="156.10000000000002" r="1.1" fill="#C9C6C0" class="fade"></circle><text x="64" y="145.10000000000002" font-size="12" font-weight="800" fill="#059669" text-anchor="middle" class="fade">200%</text><text x="64" y="291" font-size="8.2" font-weight="700" fill="#141414" text-anchor="middle" letter-spacing=".06em" class="fade">30 天</text><text x="64" y="303" font-size="8.2" font-weight="700" fill="#57554F" text-anchor="middle" letter-spacing=".04em" class="fade">×1.00</text><line x1="115.3888" y1="272" x2="148.6112" y2="272" stroke="#047854" stroke-width="1.8" opacity="0.935" class="fade"></line><line x1="114.64359999999999" y1="265.9" x2="149.3564" y2="265.9" stroke="#047854" stroke-width="1.8" opacity="0.974" class="fade"></line><line x1="115.9576" y1="259.8" x2="148.0424" y2="259.8" stroke="#047854" stroke-width="1.8" opacity="0.959" class="fade"></line><line x1="114.20439999999999" y1="253.7" x2="149.7956" y2="253.7" stroke="#047854" stroke-width="1.8" opacity="0.961" class="fade"></line><line x1="115.5184" y1="247.6" x2="148.48160000000001" y2="247.6" stroke="#047854" stroke-width="1.8" opacity="0.883" class="fade"></line><circle cx="154" cy="247.6" r="1.1" fill="#C9C6C0" class="fade"></circle><line x1="116.2996" y1="241.5" x2="147.7004" y2="241.5" stroke="#047854" stroke-width="1.8" opacity="0.905" class="fade"></line><line x1="116.0584" y1="235.4" x2="147.9416" y2="235.4" stroke="#047854" stroke-width="1.8" opacity="0.895" class="fade"></line><line x1="114.334" y1="229.3" x2="149.666" y2="229.3" stroke="#047854" stroke-width="1.8" opacity="0.992" class="fade"></line><line x1="113.54560000000001" y1="223.2" x2="150.4544" y2="223.2" stroke="#047854" stroke-width="1.8" opacity="0.953" class="fade"></line><line x1="115.882" y1="217.1" x2="148.118" y2="217.1" stroke="#047854" stroke-width="1.8" opacity="0.863" class="fade"></line><circle cx="154" cy="217.1" r="1.1" fill="#C9C6C0" class="fade"></circle><line x1="116.476" y1="211" x2="147.524" y2="211" stroke="#047854" stroke-width="1.8" opacity="0.859" class="fade"></line><line x1="115.6444" y1="204.9" x2="148.3556" y2="204.9" stroke="#047854" stroke-width="1.8" opacity="0.891" class="fade"></line><line x1="115.9504" y1="198.8" x2="148.0496" y2="198.8" stroke="#047854" stroke-width="1.8" opacity="0.989" class="fade"></line><line x1="116.2132" y1="192.7" x2="147.7868" y2="192.7" stroke="#047854" stroke-width="1.8" opacity="0.909" class="fade"></line><line x1="116.5192" y1="186.60000000000002" x2="147.4808" y2="186.60000000000002" stroke="#047854" stroke-width="1.8" opacity="0.980" class="fade"></line><circle cx="154" cy="186.60000000000002" r="1.1" fill="#C9C6C0" class="fade"></circle><line x1="114.47800000000001" y1="180.5" x2="149.522" y2="180.5" stroke="#047854" stroke-width="1.8" opacity="0.961" class="fade"></line><line x1="114.5248" y1="174.4" x2="149.4752" y2="174.4" stroke="#047854" stroke-width="1.8" opacity="0.925" class="fade"></line><line x1="115.79560000000001" y1="168.3" x2="148.2044" y2="168.3" stroke="#047854" stroke-width="1.8" opacity="0.867" class="fade"></line><line x1="115.09360000000001" y1="162.2" x2="148.9064" y2="162.2" stroke="#047854" stroke-width="1.8" opacity="0.946" class="fade"></line><line x1="116.3356" y1="156.10000000000002" x2="147.6644" y2="156.10000000000002" stroke="#047854" stroke-width="1.8" opacity="0.909" class="fade"></line><circle cx="154" cy="156.10000000000002" r="1.1" fill="#C9C6C0" class="fade"></circle><line x1="116.41120000000001" y1="150" x2="147.5888" y2="150" stroke="#047854" stroke-width="1.8" opacity="0.877" class="fade"></line><line x1="116.7316" y1="143.9" x2="147.26839999999999" y2="143.9" stroke="#047854" stroke-width="1.8" opacity="0.878" class="fade"></line><text x="132" y="132.9" font-size="12" font-weight="800" fill="#047854" text-anchor="middle" class="fade">220%</text><text x="132" y="291" font-size="8.2" font-weight="700" fill="#141414" text-anchor="middle" letter-spacing=".06em" class="fade">90 天</text><text x="132" y="303" font-size="8.2" font-weight="700" fill="#57554F" text-anchor="middle" letter-spacing=".04em" class="fade">×1.10</text><line x1="182.838" y1="272" x2="217.162" y2="272" stroke="#025F42" stroke-width="1.8" opacity="0.968" class="fade"></line><line x1="182.7336" y1="265.9" x2="217.2664" y2="265.9" stroke="#025F42" stroke-width="1.8" opacity="0.871" class="fade"></line><line x1="182.1972" y1="259.8" x2="217.8028" y2="259.8" stroke="#025F42" stroke-width="1.8" opacity="0.880" class="fade"></line><line x1="182.00639999999999" y1="253.7" x2="217.99360000000001" y2="253.7" stroke="#025F42" stroke-width="1.8" opacity="0.906" class="fade"></line><line x1="183.9756" y1="247.6" x2="216.0244" y2="247.6" stroke="#025F42" stroke-width="1.8" opacity="0.920" class="fade"></line><circle cx="222" cy="247.6" r="1.1" fill="#C9C6C0" class="fade"></circle><line x1="183.18" y1="241.5" x2="216.82" y2="241.5" stroke="#025F42" stroke-width="1.8" opacity="0.907" class="fade"></line><line x1="184.1988" y1="235.4" x2="215.8012" y2="235.4" stroke="#025F42" stroke-width="1.8" opacity="0.916" class="fade"></line><line x1="182.4528" y1="229.3" x2="217.5472" y2="229.3" stroke="#025F42" stroke-width="1.8" opacity="0.882" class="fade"></line><line x1="183.4716" y1="223.2" x2="216.5284" y2="223.2" stroke="#025F42" stroke-width="1.8" opacity="0.957" class="fade"></line><line x1="183.3384" y1="217.1" x2="216.6616" y2="217.1" stroke="#025F42" stroke-width="1.8" opacity="0.941" class="fade"></line><circle cx="222" cy="217.1" r="1.1" fill="#C9C6C0" class="fade"></circle><line x1="182.8596" y1="211" x2="217.1404" y2="211" stroke="#025F42" stroke-width="1.8" opacity="0.892" class="fade"></line><line x1="183.3024" y1="204.9" x2="216.6976" y2="204.9" stroke="#025F42" stroke-width="1.8" opacity="0.969" class="fade"></line><line x1="184.7244" y1="198.8" x2="215.2756" y2="198.8" stroke="#025F42" stroke-width="1.8" opacity="0.912" class="fade"></line><line x1="181.5672" y1="192.7" x2="218.4328" y2="192.7" stroke="#025F42" stroke-width="1.8" opacity="0.898" class="fade"></line><line x1="183.9108" y1="186.60000000000002" x2="216.0892" y2="186.60000000000002" stroke="#025F42" stroke-width="1.8" opacity="0.905" class="fade"></line><circle cx="222" cy="186.60000000000002" r="1.1" fill="#C9C6C0" class="fade"></circle><line x1="183.6624" y1="180.5" x2="216.3376" y2="180.5" stroke="#025F42" stroke-width="1.8" opacity="0.943" class="fade"></line><line x1="183.126" y1="174.4" x2="216.874" y2="174.4" stroke="#025F42" stroke-width="1.8" opacity="0.971" class="fade"></line><line x1="183.108" y1="168.3" x2="216.892" y2="168.3" stroke="#025F42" stroke-width="1.8" opacity="0.852" class="fade"></line><line x1="182.3124" y1="162.2" x2="217.6876" y2="162.2" stroke="#025F42" stroke-width="1.8" opacity="0.926" class="fade"></line><line x1="182.2656" y1="156.10000000000002" x2="217.7344" y2="156.10000000000002" stroke="#025F42" stroke-width="1.8" opacity="0.894" class="fade"></line><circle cx="222" cy="156.10000000000002" r="1.1" fill="#C9C6C0" class="fade"></circle><line x1="182.5068" y1="150" x2="217.4932" y2="150" stroke="#025F42" stroke-width="1.8" opacity="0.877" class="fade"></line><line x1="183.0648" y1="143.9" x2="216.9352" y2="143.9" stroke="#025F42" stroke-width="1.8" opacity="0.956" class="fade"></line><line x1="181.9236" y1="137.8" x2="218.0764" y2="137.8" stroke="#025F42" stroke-width="1.8" opacity="0.946" class="fade"></line><line x1="183.8352" y1="131.70000000000002" x2="216.1648" y2="131.70000000000002" stroke="#025F42" stroke-width="1.8" opacity="0.997" class="fade"></line><text x="200" y="120.70000000000002" font-size="12" font-weight="800" fill="#025F42" text-anchor="middle" class="fade">240%</text><text x="200" y="291" font-size="8.2" font-weight="700" fill="#141414" text-anchor="middle" letter-spacing=".06em" class="fade">180 天</text><text x="200" y="303" font-size="8.2" font-weight="700" fill="#57554F" text-anchor="middle" letter-spacing=".04em" class="fade">×1.20</text><line x1="249.32240000000002" y1="272" x2="286.6776" y2="272" stroke="#014831" stroke-width="1.8" opacity="0.853" class="fade"></line><line x1="250.7516" y1="265.9" x2="285.2484" y2="265.9" stroke="#014831" stroke-width="1.8" opacity="0.989" class="fade"></line><line x1="249.8192" y1="259.8" x2="286.1808" y2="259.8" stroke="#014831" stroke-width="1.8" opacity="0.888" class="fade"></line><line x1="250.1828" y1="253.7" x2="285.8172" y2="253.7" stroke="#014831" stroke-width="1.8" opacity="0.917" class="fade"></line><line x1="250.1432" y1="247.6" x2="285.8568" y2="247.6" stroke="#014831" stroke-width="1.8" opacity="0.879" class="fade"></line><circle cx="290" cy="247.6" r="1.1" fill="#C9C6C0" class="fade"></circle><line x1="252.0044" y1="241.5" x2="283.9956" y2="241.5" stroke="#014831" stroke-width="1.8" opacity="0.862" class="fade"></line><line x1="251.4752" y1="235.4" x2="284.5248" y2="235.4" stroke="#014831" stroke-width="1.8" opacity="0.911" class="fade"></line><line x1="251.7236" y1="229.3" x2="284.2764" y2="229.3" stroke="#014831" stroke-width="1.8" opacity="0.920" class="fade"></line><line x1="249.38" y1="223.2" x2="286.62" y2="223.2" stroke="#014831" stroke-width="1.8" opacity="0.937" class="fade"></line><line x1="250.3196" y1="217.1" x2="285.6804" y2="217.1" stroke="#014831" stroke-width="1.8" opacity="0.951" class="fade"></line><circle cx="290" cy="217.1" r="1.1" fill="#C9C6C0" class="fade"></circle><line x1="252.4976" y1="211" x2="283.5024" y2="211" stroke="#014831" stroke-width="1.8" opacity="0.920" class="fade"></line><line x1="252.57319999999999" y1="204.9" x2="283.4268" y2="204.9" stroke="#014831" stroke-width="1.8" opacity="0.892" class="fade"></line><line x1="251.8136" y1="198.8" x2="284.1864" y2="198.8" stroke="#014831" stroke-width="1.8" opacity="0.946" class="fade"></line><line x1="249.47" y1="192.7" x2="286.53" y2="192.7" stroke="#014831" stroke-width="1.8" opacity="0.866" class="fade"></line><line x1="251.3888" y1="186.60000000000002" x2="284.6112" y2="186.60000000000002" stroke="#014831" stroke-width="1.8" opacity="0.851" class="fade"></line><circle cx="290" cy="186.60000000000002" r="1.1" fill="#C9C6C0" class="fade"></circle><line x1="249.6788" y1="180.5" x2="286.3212" y2="180.5" stroke="#014831" stroke-width="1.8" opacity="0.918" class="fade"></line><line x1="250.1288" y1="174.4" x2="285.8712" y2="174.4" stroke="#014831" stroke-width="1.8" opacity="0.946" class="fade"></line><line x1="251.0108" y1="168.3" x2="284.9892" y2="168.3" stroke="#014831" stroke-width="1.8" opacity="0.892" class="fade"></line><line x1="252.3824" y1="162.2" x2="283.6176" y2="162.2" stroke="#014831" stroke-width="1.8" opacity="0.959" class="fade"></line><line x1="250.4996" y1="156.10000000000002" x2="285.5004" y2="156.10000000000002" stroke="#014831" stroke-width="1.8" opacity="0.976" class="fade"></line><circle cx="290" cy="156.10000000000002" r="1.1" fill="#C9C6C0" class="fade"></circle><line x1="251.3816" y1="150" x2="284.6184" y2="150" stroke="#014831" stroke-width="1.8" opacity="0.851" class="fade"></line><line x1="252.1484" y1="143.9" x2="283.8516" y2="143.9" stroke="#014831" stroke-width="1.8" opacity="0.993" class="fade"></line><line x1="252.1376" y1="137.8" x2="283.8624" y2="137.8" stroke="#014831" stroke-width="1.8" opacity="0.988" class="fade"></line><line x1="249.938" y1="131.70000000000002" x2="286.062" y2="131.70000000000002" stroke="#014831" stroke-width="1.8" opacity="0.869" class="fade"></line><line x1="251.684" y1="125.60000000000002" x2="284.316" y2="125.60000000000002" stroke="#014831" stroke-width="1.8" opacity="0.916" class="fade"></line><circle cx="290" cy="125.60000000000002" r="1.1" fill="#C9C6C0" class="fade"></circle><line x1="250.9244" y1="119.5" x2="285.0756" y2="119.5" stroke="#014831" stroke-width="1.8" opacity="0.904" class="fade"></line><line x1="249.3008" y1="113.4" x2="286.6992" y2="113.4" stroke="#014831" stroke-width="1.8" opacity="0.864" class="fade"></line><text x="268" y="102.4" font-size="12" font-weight="800" fill="#014831" text-anchor="middle" class="fade">270%</text><text x="268" y="291" font-size="8.2" font-weight="700" fill="#141414" text-anchor="middle" letter-spacing=".06em" class="fade">360 天</text><text x="268" y="303" font-size="8.2" font-weight="700" fill="#57554F" text-anchor="middle" letter-spacing=".04em" class="fade">×1.35</text><line x1="318.2692" y1="272" x2="353.7308" y2="272" stroke="#013322" stroke-width="1.8" opacity="0.863" class="fade"></line><line x1="317.9776" y1="265.9" x2="354.0224" y2="265.9" stroke="#013322" stroke-width="1.8" opacity="0.874" class="fade"></line><line x1="320.2924" y1="259.8" x2="351.7076" y2="259.8" stroke="#013322" stroke-width="1.8" opacity="0.872" class="fade"></line><line x1="320.0872" y1="253.7" x2="351.9128" y2="253.7" stroke="#013322" stroke-width="1.8" opacity="0.874" class="fade"></line><line x1="319.4644" y1="247.6" x2="352.5356" y2="247.6" stroke="#013322" stroke-width="1.8" opacity="0.917" class="fade"></line><circle cx="358" cy="247.6" r="1.1" fill="#C9C6C0" class="fade"></circle><line x1="319.1152" y1="241.5" x2="352.8848" y2="241.5" stroke="#013322" stroke-width="1.8" opacity="0.854" class="fade"></line><line x1="319.4428" y1="235.4" x2="352.5572" y2="235.4" stroke="#013322" stroke-width="1.8" opacity="0.933" class="fade"></line><line x1="319.2088" y1="229.3" x2="352.7912" y2="229.3" stroke="#013322" stroke-width="1.8" opacity="0.949" class="fade"></line><line x1="320.026" y1="223.2" x2="351.974" y2="223.2" stroke="#013322" stroke-width="1.8" opacity="0.919" class="fade"></line><line x1="318.2368" y1="217.1" x2="353.7632" y2="217.1" stroke="#013322" stroke-width="1.8" opacity="0.985" class="fade"></line><circle cx="358" cy="217.1" r="1.1" fill="#C9C6C0" class="fade"></circle><line x1="318.622" y1="211" x2="353.378" y2="211" stroke="#013322" stroke-width="1.8" opacity="0.985" class="fade"></line><line x1="319.7992" y1="204.9" x2="352.2008" y2="204.9" stroke="#013322" stroke-width="1.8" opacity="0.862" class="fade"></line><line x1="317.938" y1="198.8" x2="354.062" y2="198.8" stroke="#013322" stroke-width="1.8" opacity="0.900" class="fade"></line><line x1="319.3168" y1="192.7" x2="352.6832" y2="192.7" stroke="#013322" stroke-width="1.8" opacity="0.985" class="fade"></line><line x1="319.6444" y1="186.60000000000002" x2="352.3556" y2="186.60000000000002" stroke="#013322" stroke-width="1.8" opacity="0.896" class="fade"></line><circle cx="358" cy="186.60000000000002" r="1.1" fill="#C9C6C0" class="fade"></circle><line x1="319.468" y1="180.5" x2="352.532" y2="180.5" stroke="#013322" stroke-width="1.8" opacity="0.858" class="fade"></line><line x1="318.5572" y1="174.4" x2="353.4428" y2="174.4" stroke="#013322" stroke-width="1.8" opacity="0.961" class="fade"></line><line x1="317.8912" y1="168.3" x2="354.1088" y2="168.3" stroke="#013322" stroke-width="1.8" opacity="0.983" class="fade"></line><line x1="320.7532" y1="162.2" x2="351.2468" y2="162.2" stroke="#013322" stroke-width="1.8" opacity="0.972" class="fade"></line><line x1="318.964" y1="156.10000000000002" x2="353.036" y2="156.10000000000002" stroke="#013322" stroke-width="1.8" opacity="0.982" class="fade"></line><circle cx="358" cy="156.10000000000002" r="1.1" fill="#C9C6C0" class="fade"></circle><line x1="319.7524" y1="150" x2="352.2476" y2="150" stroke="#013322" stroke-width="1.8" opacity="0.862" class="fade"></line><line x1="320.152" y1="143.9" x2="351.848" y2="143.9" stroke="#013322" stroke-width="1.8" opacity="0.942" class="fade"></line><line x1="318.262" y1="137.8" x2="353.738" y2="137.8" stroke="#013322" stroke-width="1.8" opacity="0.975" class="fade"></line><line x1="318.4888" y1="131.70000000000002" x2="353.5112" y2="131.70000000000002" stroke="#013322" stroke-width="1.8" opacity="0.928" class="fade"></line><line x1="317.26120000000003" y1="125.60000000000002" x2="354.73879999999997" y2="125.60000000000002" stroke="#013322" stroke-width="1.8" opacity="0.856" class="fade"></line><circle cx="358" cy="125.60000000000002" r="1.1" fill="#C9C6C0" class="fade"></circle><line x1="319.1008" y1="119.5" x2="352.8992" y2="119.5" stroke="#013322" stroke-width="1.8" opacity="0.924" class="fade"></line><line x1="317.3548" y1="113.4" x2="354.6452" y2="113.4" stroke="#013322" stroke-width="1.8" opacity="0.969" class="fade"></line><line x1="319.6264" y1="107.30000000000001" x2="352.3736" y2="107.30000000000001" stroke="#013322" stroke-width="1.8" opacity="0.987" class="fade"></line><line x1="320.5012" y1="101.20000000000002" x2="351.4988" y2="101.20000000000002" stroke="#013322" stroke-width="1.8" opacity="0.970" class="fade"></line><line x1="320.296" y1="95.10000000000002" x2="351.704" y2="95.10000000000002" stroke="#013322" stroke-width="1.8" opacity="0.901" class="fade"></line><circle cx="358" cy="95.10000000000002" r="1.1" fill="#C9C6C0" class="fade"></circle><text x="336" y="84.10000000000002" font-size="12" font-weight="800" fill="#013322" text-anchor="middle" class="fade">300%</text><text x="336" y="291" font-size="8.2" font-weight="700" fill="#141414" text-anchor="middle" letter-spacing=".06em" class="fade">540 天</text><text x="336" y="303" font-size="8.2" font-weight="700" fill="#57554F" text-anchor="middle" letter-spacing=".04em" class="fade">×1.50</text><line x1="26" y1="277" x2="374" y2="277" stroke="#C9C6C0" stroke-width="1.4" class="fade"></line><text x="200" y="320" font-size="7.4" font-weight="600" fill="#6F6D66" text-anchor="middle" letter-spacing=".12em" class="fade">每格 = 10 个百分点 · 每五格一个点标</text></g><text x="36" y="521.1779901123048" font-size="9.5" font-weight="600" fill="#6F6D66" letter-spacing=".09em">RUNG BARS · TERM WEIGHTS · NEXON 经济模型 · 2026 年 9 月 6 日</text></svg>
